<?xml version="1.0" encoding="UTF-8" standalone="no"?>
<!-- Created with Inkscape (http://www.inkscape.org/) -->

<svg
   xmlns:dc="http://purl.org/dc/elements/1.1/"
   xmlns:cc="http://creativecommons.org/ns#"
   xmlns:rdf="http://www.w3.org/1999/02/22-rdf-syntax-ns#"
   xmlns:svg="http://www.w3.org/2000/svg"
   xmlns="http://www.w3.org/2000/svg"
   xmlns:sodipodi="http://sodipodi.sourceforge.net/DTD/sodipodi-0.dtd"
   xmlns:inkscape="http://www.inkscape.org/namespaces/inkscape"
   width="256"
   height="256"
   viewBox="0 0 256 256"
   id="svg2"
   version="1.1"
   inkscape:version="0.91 r13725"
   sodipodi:docname="icon2.svg">
  <defs
     id="defs4" />
  <sodipodi:namedview
     id="base"
     pagecolor="#ffffff"
     bordercolor="#A3A5B5"
     borderopacity="1.0"
     inkscape:pageopacity="0.0"
     inkscape:pageshadow="2"
     inkscape:zoom="1.4"
     inkscape:cx="215.45784"
     inkscape:cy="127.7769"
     inkscape:document-units="px"
     inkscape:current-layer="layer1"
     showgrid="false"
     units="px"
     width="256px"
     showguides="true"
     inkscape:guide-bbox="true"
     inkscape:window-width="1364"
     inkscape:window-height="750"
     inkscape:window-x="0"
     inkscape:window-y="16"
     inkscape:window-maximized="1">
    <sodipodi:guide
       position="-0.71428572,145.71429"
       orientation="1,0"
       id="guide3398" />
    <sodipodi:guide
       position="-125,255.71429"
       orientation="0,1"
       id="guide3400" />
  </sodipodi:namedview>
  <metadata
     id="metadata7">
    <rdf:RDF>
      <cc:Work
         rdf:about="">
        <dc:format>image/svg+xml</dc:format>
        <dc:type
           rdf:resource="http://purl.org/dc/dcmitype/StillImage" />
        <dc:title></dc:title>
      </cc:Work>
    </rdf:RDF>
  </metadata>
  <g
     inkscape:label="Layer 1"
     inkscape:groupmode="layer"
     id="layer1"
     transform="translate(0,-796.3622)">
    <path
       style="fill:#cccccc"
       d="m 83.406802,1049.0577 c -9.75519,-3.5232 -25.47761,-11.9994 -29.2887,-15.7901 -0.72597,-0.722 -1.69559,-1.3128 -2.15471,-1.3128 -1.17089,0 -20.16443,-18.7677 -23.08535,-22.8109 -1.32419,-1.833 -2.93132,-3.8978 -3.57141,-4.5885 -1.99829,-2.1565 -8.81224,-13.75887 -12.06692,-20.54697 C 2.7790025,962.19113 -1.3160375,939.08144 0.84929246,914.08506 1.8593825,902.42475 3.8222725,892.02386 6.0331225,886.6172 c 0.44931,-1.09877 1.78008,-4.69476 2.95727,-7.99107 5.8536195,-16.39098 16.9165295,-33.482 30.0289595,-46.39151 8.22908,-8.10174 10.42496,-9.96713 15.19659,-12.90944 2.07477,-1.27935 4.32396,-2.84394 4.99819,-3.47686 3.39399,-3.18603 17.6049,-10.08194 28.68765,-13.92081 24.427888,-8.46139 55.482808,-8.46139 79.910708,0 11.08276,3.83887 25.29367,10.73478 28.68766,13.92081 0.67422,0.63292 2.92341,2.19751 4.99818,3.47686 4.77164,2.94231 6.96752,4.8077 15.19659,12.90944 13.11243,12.90951 24.17535,30.00053 30.02896,46.39151 1.17719,3.29631 2.50797,6.8923 2.95727,7.99107 2.21086,5.40666 4.17374,15.80755 5.18382,27.46786 2.16533,24.99638 -1.9297,48.10607 -12.3904,69.92337 -3.2547,6.7881 -10.06863,18.39047 -12.06693,20.54697 -0.64008,0.6907 -2.24722,2.7555 -3.57141,4.5885 -2.92093,4.0432 -21.91446,22.8109 -23.08535,22.8109 -0.45911,0 -1.42874,0.5908 -2.15471,1.3128 -3.93508,3.914 -20.79221,12.9104 -30.07278,16.0494 -5.84454,1.9768 -6.80277,1.9976 -9.26357,0.2009 -1.80261,-1.316 -1.97989,-3.195 -2.52106,-26.7201 -0.53198,-23.12627 -0.76666,-25.69137 -2.72635,-29.79947 -1.17934,-2.4722 -2.83139,-5.4292 -3.6712,-6.5711 -1.49802,-2.0367 -1.3572,-2.1087 7.43168,-3.7998 33.02966,-6.3551 48.43954,-26.15716 48.28553,-62.04818 -0.0493,-11.49271 -0.34436,-13.69437 -2.56666,-19.15189 -1.38101,-3.39152 -4.13818,-8.61795 -6.12704,-11.61428 -3.57294,-5.38287 -3.60241,-5.5117 -2.46933,-10.79504 1.34848,-6.28779 0.61004,-19.58023 -1.40907,-25.36401 -1.6805,-4.81381 -3.28426,-5.22925 -11.78252,-3.05209 -7.54758,1.9336 -11.71808,3.82596 -19.13042,8.68044 l -5.73521,3.75608 -5.75195,-1.66029 c -8.28675,-2.39197 -44.17142,-2.39197 -52.45817,0 l -5.751948,1.66029 -5.73521,-3.75608 c -7.41234,-4.85448 -11.58284,-6.74684 -19.13042,-8.68044 -8.49826,-2.17716 -10.10202,-1.76172 -11.78252,3.05209 -2.01911,5.78378 -2.75755,19.07622 -1.40906,25.36401 1.13307,5.28334 1.1036,5.41217 -2.46934,10.79504 -1.98885,2.99633 -4.74602,8.22276 -6.12704,11.61428 -2.22229,5.45752 -2.51735,7.65918 -2.56666,19.15189 -0.15401,35.89102 15.25588,55.69308 48.28553,62.04818 8.788878,1.6911 8.929688,1.7631 7.431678,3.7998 -2.457698,3.3416 -5.481318,10.5397 -5.481318,13.0489 0,1.71497 -0.84322,2.61147 -3.24638,3.45167 -5.35304,1.8716 -13.91693,2.3642 -18.72907,1.0773 -6.20844,-1.6603 -10.10881,-4.88977 -15.67644,-12.97977 -3.61441,-5.2519 -6.21141,-7.7796 -10.75353,-10.4666 -6.33195,-3.7458 -11.4487,-4.5465 -13.47239,-2.1081 -1.30752,1.5755 0.13918,5.5578 2.01904,5.5578 2.26874,0 10.96295,10.3539 14.00915,16.68347 4.42977,9.2045 8.75242,14.3817 14.45814,17.3162 4.34904,2.2368 5.9414,2.4595 17.5873,2.4595 l 12.80529,0 0,13.2352 c 0,11.9034 -0.20103,13.4363 -1.99777,15.233 -2.43064,2.4306 -4.04381,2.4494 -10.48828,0.1219 z m -2.78803,-38.7033 c -0.38943,-0.3894 -0.70806,-1.1125 -0.70806,-1.6068 0,-1.2191 4.99994,-0.5251 5.2752,0.7323 0.2577,1.1772 -3.53771,1.904 -4.56714,0.8745 z m 10.05006,-0.9376 c -1.16614,-1.1662 0.42355,-3.433 2.40748,-3.433 1.32799,0 1.85583,0.5624 1.62971,1.7366 -0.34071,1.7691 -2.89228,2.8413 -4.03719,1.6964 z m -20.08104,-1.1023 c -1.35808,-1.3581 -0.59387,-2.3307 1.83129,-2.3307 1.55382,0 2.49721,0.566 2.49721,1.4983 0,1.4982 -3.07192,2.089 -4.3285,0.8324 z m -9.31118,-5.8699 c -0.32532,-0.8478 -0.34509,-1.7878 -0.0439,-2.0889 0.99384,-0.99387 4.69366,0.7398 4.69366,2.1993 0,1.9252 -3.90419,1.8325 -4.64973,-0.1104 z m -5.35915,-6.97317 c -0.69494,-0.8374 -0.99411,-1.7919 -0.66483,-2.1212 1.02292,-1.0229 3.68152,0.5037 3.68152,2.114 0,1.9564 -1.39621,1.9597 -3.01669,0.01 z m -5.5149,-7.534 c -0.36213,-0.5859 -0.40804,-1.3157 -0.10203,-1.6217 0.82172,-0.8217 3.6392,0.461 3.6392,1.6568 0,1.3558 -2.6941,1.329 -3.53717,-0.035 z m -4.75971,-4.5678 c -0.35132,-0.3513 -0.41184,-1.0059 -0.13449,-1.4547 0.62281,-1.0077 3.43695,-0.024 3.43695,1.2014 0,1.025 -2.35051,1.2052 -3.30246,0.2533 z"
       id="path3402"
       inkscape:connector-curvature="0" />
  </g>
</svg>
